General
Complete name : Ongole Gitta - 2013 - Telugu - PDVDRip - MP4 - AAC - 700MB - RockStar - Team QMR.mp4
Format : MPEG-4
Format profile : Base Media / Version 2
Codec ID : mp42
File size : 725 MiB
Duration : 2h 31mn
Overall bit rate mode : Variable
Overall bit rate : 669 Kbps
Encoded date : UTC 2013-02-02 13:45:16
Tagged date : UTC 2013-02-02 14:05:37
Writing application : HandBrake 0.9.8 2012071700

Video
ID : 1
Format : AVC
Format/Info : Advanced Video Codec
Format profile : Main@L2.1
Format settings, CABAC : Yes
Format settings, ReFrames : 4 frames
Codec ID : avc1
Codec ID/Info : Advanced Video Coding
Duration : 2h 31mn
Bit rate mode : Variable
Bit rate : 569 Kbps
Width : 550 pixels
Height : 240 pixels
Display aspect ratio : 2.25:1
Frame rate mode : Variable
Frame rate : 25.000 fps
Minimum frame rate : 6.250 fps
Maximum frame rate : 25.000 fps
Color space : YUV
Chroma subsampling : 4:2:0
Bit depth : 8 bits
Scan type : Progressive
Bits/(Pixel*Frame) : 0.172
Stream size : 616 MiB (85%)
Writing library : x264 core 120
Encoding settings : cabac=1 / ref=1 / deblock=1:0:0 / analyse=0x1:0x111 / me=hex / subme=2 / psy=1 / psy_rd=1.00:0.00 / mixed_ref=0 / me_range=16 / chroma_me=1 / trellis=0 / 8x8dct=0 / cqm=0 / deadzone=21,11 / fast_pskip=1 / chroma_qp_offset=0 / threads=6 / sliced_threads=0 / nr=0 / decimate=1 / interlaced=0 / bluray_compat=0 / constrained_intra=0 / bframes=3 / b_pyramid=2 / b_adapt=1 / b_bias=0 / direct=1 / weightb=1 / open_gop=0 / weightp=1 / keyint=250 / keyint_min=25 / scenecut=40 / intra_refresh=0 / rc_lookahead=10 / rc=crf / mbtree=1 / crf=21.0 / qcomp=0.60 / qpmin=3 / qpmax=69 / qpstep=4 / ip_ratio=1.40 / aq=1:1.00
Encoded date : UTC 2013-02-02 13:45:16
Tagged date : UTC 2013-02-02 14:05:37
Color primaries : BT.709
Transfer characteristics : BT.709
Matrix coefficients : BT.709

Audio
ID : 2
Format : AAC
Format/Info : Advanced Audio Codec
Format profile : LC
Codec ID : 40
Duration : 2h 31mn
Bit rate mode : Variable
Bit rate : 96.0 Kbps
Maximum bit rate : 182 Kbps
Channel(s) : 2 channels
Channel positions : Front: L R
Sampling rate : 44.1 KHz
Compression mode : Lossy
Delay relative to video : 80ms
Stream size : 104 MiB (14%)
Language : English
Encoded date : UTC 2013-02-02 13:45:16
Tagged date : UTC 2013-02-02 14:05:37
 
http://www.shotpix.com/images/80250960321364944562.png 
http://www.shotpix.com/images/65289086686353949532.png 
http://www.shotpix.com/images/12213599472739932938.png 
http://www.shotpix.com/images/61459593391271041956.png 
http://www.shotpix.com/images/44986755943031583920.png 
http://www.shotpix.com/images/11484506053618133500.png

Thanks To Rockstar